<svg xmlns="http://www.w3.org/2000/svg" width="17.624" height="16.891" viewBox="0 0 17.624 16.891">
  <g id="Icon_feather-shopping-cart" data-name="Icon feather-shopping-cart" transform="translate(-0.75 -0.75)">
    <path id="Path_246" data-name="Path 246" d="M13.466,30.733A.733.733,0,1,1,12.733,30,.733.733,0,0,1,13.466,30.733Z" transform="translate(-5.37 -14.575)" fill="none" stroke="#000" stroke-linecap="round" stroke-linejoin="round" stroke-width="1.5"/>
    <path id="Path_247" data-name="Path 247" d="M29.966,30.733A.733.733,0,1,1,29.233,30,.733.733,0,0,1,29.966,30.733Z" transform="translate(-13.808 -14.575)" fill="none" stroke="#000" stroke-linecap="round" stroke-linejoin="round" stroke-width="1.5"/>
    <path id="Path_248" data-name="Path 248" d="M1.5,1.5H4.432L6.4,11.313a1.466,1.466,0,0,0,1.466,1.18h7.124a1.466,1.466,0,0,0,1.466-1.18l1.173-6.149H5.164" fill="none" stroke="#000" stroke-linecap="round" stroke-linejoin="round" stroke-width="1.5"/>
  </g>
</svg>
