<svg xmlns="http://www.w3.org/2000/svg" width="21.626" height="21.622" viewBox="0 0 21.626 21.622">
  <g id="Social_media" data-name="Social media" transform="translate(-1440.995 -3176.505)">
    <path id="Icon_awesome-instagram" data-name="Icon awesome-instagram" d="M10.81,7.5a5.543,5.543,0,1,0,5.543,5.543A5.535,5.535,0,0,0,10.81,7.5Zm0,9.147a3.6,3.6,0,1,1,3.6-3.6,3.611,3.611,0,0,1-3.6,3.6Zm7.063-9.374a1.293,1.293,0,1,1-1.293-1.293A1.29,1.29,0,0,1,17.874,7.278Zm3.672,1.312A6.4,6.4,0,0,0,19.8,4.06a6.441,6.441,0,0,0-4.53-1.747c-1.785-.1-7.136-.1-8.921,0a6.432,6.432,0,0,0-4.53,1.742A6.42,6.42,0,0,0,.071,8.586c-.1,1.785-.1,7.136,0,8.921a6.4,6.4,0,0,0,1.747,4.53,6.449,6.449,0,0,0,4.53,1.747c1.785.1,7.136.1,8.921,0a6.4,6.4,0,0,0,4.53-1.747,6.441,6.441,0,0,0,1.747-4.53c.1-1.785.1-7.131,0-8.916ZM19.239,19.422a3.649,3.649,0,0,1-2.055,2.055c-1.423.564-4.8.434-6.373.434s-4.955.125-6.373-.434a3.649,3.649,0,0,1-2.055-2.055c-.564-1.423-.434-4.8-.434-6.373s-.125-4.955.434-6.373A3.649,3.649,0,0,1,4.437,4.62c1.423-.564,4.8-.434,6.373-.434s4.955-.125,6.373.434a3.649,3.649,0,0,1,2.055,2.055c.564,1.423.434,4.8.434,6.373S19.8,18,19.239,19.422Z" transform="translate(1441 3174.267)" fill="#f0f2f3"/>
  </g>
</svg>
