<svg id="mail" xmlns="http://www.w3.org/2000/svg" width="18.181" height="13.849" viewBox="0 0 18.181 13.849">
  <g id="Group_97" data-name="Group 97" transform="translate(0.913)">
    <g id="Group_96" data-name="Group 96">
      <path id="Path_240" data-name="Path 240" d="M41.391,61H26.406a1.579,1.579,0,0,0-.685.16L33.863,69.3l1.825-1.754h0l6.388-6.387A1.579,1.579,0,0,0,41.391,61Z" transform="translate(-25.721 -61)" fill="#ffc557"/>
    </g>
  </g>
  <g id="Group_99" data-name="Group 99" transform="translate(12.01 0.914)">
    <g id="Group_98" data-name="Group 98">
      <path id="Path_241" data-name="Path 241" d="M344.224,86.728l-6.011,6.011,6.011,6.011a1.58,1.58,0,0,0,.16-.685V87.412A1.579,1.579,0,0,0,344.224,86.728Z" transform="translate(-338.213 -86.728)" fill="#ffc557"/>
    </g>
  </g>
  <g id="Group_101" data-name="Group 101" transform="translate(0 0.913)">
    <g id="Group_100" data-name="Group 100">
      <path id="Path_242" data-name="Path 242" d="M.16,86.721a1.579,1.579,0,0,0-.16.685V98.059a1.58,1.58,0,0,0,.16.684l6.011-6.011Z" transform="translate(0 -86.721)" fill="#ffc557"/>
    </g>
  </g>
  <g id="Group_103" data-name="Group 103" transform="translate(0.913 7.678)">
    <g id="Group_102" data-name="Group 102">
      <path id="Path_243" data-name="Path 243" d="M36.058,277.211l-1.825,1.754a.532.532,0,0,1-.753,0l-1.754-1.754-6.011,6.011a1.58,1.58,0,0,0,.685.16H41.384a1.58,1.58,0,0,0,.685-.16Z" transform="translate(-25.714 -277.211)" fill="#ffc557"/>
    </g>
  </g>
</svg>
