<svg id="phone" xmlns="http://www.w3.org/2000/svg" width="16.569" height="16.569" viewBox="0 0 16.569 16.569">
  <g id="Group_95" data-name="Group 95">
    <path id="Path_239" data-name="Path 239" d="M15.24,10.876a9.407,9.407,0,0,1-2.954-.471,1.35,1.35,0,0,0-1.313.277L9.109,12.088A10.3,10.3,0,0,1,4.48,7.46L5.845,5.646a1.339,1.339,0,0,0,.329-1.357A9.422,9.422,0,0,1,5.7,1.33,1.331,1.331,0,0,0,4.372,0H1.33A1.331,1.331,0,0,0,0,1.33a15.257,15.257,0,0,0,15.24,15.24,1.331,1.331,0,0,0,1.33-1.33V12.205A1.331,1.331,0,0,0,15.24,10.876Z" fill="#ffc557"/>
  </g>
</svg>
