<svg xmlns="http://www.w3.org/2000/svg" width="22.038" height="22.117" viewBox="0 0 22.038 22.117">
  <g id="Whats_uo" data-name="Whats uo" transform="translate(-1060.978 -1825.8)">
    <path id="Page-1-path" d="M9.849,19.541h0a9.758,9.758,0,0,1-4.667-1.189L0,19.71l1.386-5.061a9.767,9.767,0,1,1,8.463,4.892Z" transform="translate(1062.4 1826.8)" fill="#2f2a2a" stroke="#f0f2f3" stroke-width="2"/>
    <path id="Page-1-path-2" data-name="Page-1-path" d="M9.883,6.841c-.061-.1-.224-.163-.468-.285s-1.444-.712-1.668-.794-.386-.122-.549.122-.63.794-.773.957-.285.183-.529.061A6.665,6.665,0,0,1,3.935,5.691,7.355,7.355,0,0,1,2.577,4c-.142-.244-.015-.376.107-.5s.244-.285.366-.428a1.666,1.666,0,0,0,.244-.407.449.449,0,0,0-.02-.428C3.213,2.117,2.725.916,2.522.428s-.4-.411-.549-.419S1.668,0,1.5,0A.9.9,0,0,0,.854.305,2.737,2.737,0,0,0,0,2.341,4.747,4.747,0,0,0,1,4.866,10.878,10.878,0,0,0,5.165,8.551a14.017,14.017,0,0,0,1.391.514,3.344,3.344,0,0,0,1.537.1A2.513,2.513,0,0,0,9.741,8a2.041,2.041,0,0,0,.142-1.161Z" transform="translate(1067.286 1832.056)" fill="#f0f2f3"/>
  </g>
</svg>
